<svg width="259" height="199" viewBox="0 0 259 199" fill="none" xmlns="http://www.w3.org/2000/svg">
<g clip-path="url(#clip0)">
<path d="M175.484 16.1596C159.001 16.1372 142.882 21.0188 129.168 30.1864C115.453 39.354 104.76 52.3953 98.4423 67.6594C92.1243 82.9234 90.4653 99.7238 93.6755 115.934C96.8857 132.144 104.821 147.034 116.476 158.72C128.131 170.406 142.982 178.362 159.149 181.58C175.317 184.799 192.073 183.136 207.297 176.801C222.521 170.466 235.528 159.745 244.671 145.995C253.815 132.244 258.683 116.083 258.661 99.5565C258.631 77.4474 249.858 56.2525 234.266 40.619C218.674 24.9855 197.534 16.1895 175.484 16.1596V16.1596ZM175.484 166.907C162.085 167.019 148.956 163.138 137.761 155.756C126.567 148.374 117.812 137.824 112.607 125.445C107.402 113.066 105.982 99.416 108.527 86.2266C111.073 73.0373 117.468 60.9033 126.903 51.3643C136.337 41.8254 148.386 35.3115 161.519 32.6492C174.651 29.9869 188.277 31.2962 200.667 36.411C213.056 41.5258 223.651 50.2155 231.107 61.3774C238.563 72.5394 242.544 85.6705 242.544 99.1045C242.618 107.982 240.939 116.786 237.602 125.009C234.265 133.232 229.337 140.711 223.103 147.014C216.868 153.318 209.45 158.321 201.277 161.735C193.104 165.149 184.338 166.907 175.484 166.907V166.907Z" fill="#117BFF"/>
<path d="M175.484 47.6875C165.22 47.6652 155.181 50.6977 146.638 56.4009C138.095 62.1042 131.432 70.2215 127.494 79.7245C123.556 89.2275 122.52 99.6887 124.517 109.783C126.514 119.877 131.454 129.149 138.711 136.426C145.969 143.702 155.217 148.656 165.284 150.658C175.352 152.66 185.785 151.621 195.263 147.673C204.742 143.724 212.837 137.044 218.526 128.478C224.214 119.913 227.238 109.847 227.216 99.5563C227.186 85.809 221.727 72.6333 212.031 62.9125C202.336 53.1917 189.195 47.7174 175.484 47.6875V47.6875ZM175.484 141.481C167.209 141.503 159.114 139.063 152.222 134.47C145.331 129.877 139.954 123.337 136.772 115.679C133.59 108.02 132.746 99.5867 134.347 91.4468C135.947 83.3068 139.921 75.826 145.764 69.9514C151.607 64.0769 159.058 60.0727 167.172 58.4459C175.286 56.819 183.699 57.6427 191.347 60.8125C198.994 63.9823 205.531 69.3558 210.13 76.2526C214.73 83.1495 217.185 91.2596 217.185 99.5563C217.185 110.656 212.795 121.302 204.978 129.162C197.161 137.021 186.554 141.451 175.484 141.481V141.481Z" fill="#117BFF"/>
<path d="M178.19 77.0688L183.825 88.3692C184.02 88.7598 184.307 89.0973 184.66 89.3531C185.013 89.6089 185.423 89.7753 185.854 89.8382L198.59 91.6463C199.088 91.7233 199.555 91.9383 199.937 92.267C200.32 92.5958 200.604 93.0253 200.756 93.507C200.908 93.9888 200.923 94.5036 200.8 94.9935C200.676 95.4833 200.418 95.9287 200.055 96.2795L190.813 105.207C190.521 105.52 190.307 105.899 190.19 106.312C190.072 106.724 190.054 107.159 190.137 107.58L192.278 120.01C192.359 120.509 192.298 121.021 192.104 121.487C191.91 121.954 191.59 122.356 191.18 122.65C190.77 122.944 190.286 123.117 189.783 123.15C189.28 123.182 188.778 123.073 188.333 122.835L177.063 116.846C176.671 116.678 176.249 116.592 175.823 116.592C175.397 116.592 174.975 116.678 174.583 116.846L163.312 122.835C162.868 123.073 162.366 123.182 161.863 123.15C161.36 123.117 160.876 122.944 160.466 122.65C160.056 122.356 159.735 121.954 159.541 121.487C159.347 121.021 159.287 120.509 159.368 120.01L161.622 107.354C161.658 106.925 161.607 106.494 161.471 106.086C161.336 105.678 161.118 105.302 160.833 104.981L151.591 96.0535C151.338 95.7071 151.171 95.3055 151.104 94.8819C151.036 94.4582 151.07 94.0245 151.202 93.6164C151.334 93.2083 151.56 92.8374 151.863 92.5342C152.166 92.231 152.536 92.0042 152.943 91.8723L165.567 90.0642C166.001 90.011 166.415 89.8483 166.769 89.5914C167.124 89.3345 167.408 88.9918 167.595 88.5952L173.231 77.2948C173.418 76.8003 173.746 76.3717 174.173 76.0615C174.601 75.7514 175.109 75.5734 175.636 75.5494C176.163 75.5253 176.686 75.6564 177.139 75.9264C177.593 76.1963 177.958 76.5934 178.19 77.0688V77.0688Z" fill="#117BFF"/>
<path d="M70.33 83.5099C70.1808 95.4139 74.1653 106.999 81.6006 116.281C81.7169 116.405 81.87 116.489 82.0372 116.519C82.2045 116.549 82.3769 116.524 82.5289 116.447C82.6809 116.371 82.8042 116.248 82.8807 116.096C82.9571 115.944 82.9825 115.771 82.9531 115.603C82.2103 110.288 81.8712 104.923 81.9388 99.5565C81.9388 98.3134 81.9388 96.9574 81.9388 95.6013C80.764 91.6781 80.1567 87.6061 80.1354 83.5099C80.1426 77.3596 81.4993 71.2862 84.1093 65.7204C86.7194 60.1546 90.5188 55.2327 95.2381 51.3038C98.6703 45.6345 102.674 40.3332 107.185 35.4832C107.311 35.3379 107.387 35.1561 107.403 34.9644C107.418 34.7726 107.373 34.5808 107.272 34.4169C107.171 34.2531 107.021 34.1256 106.843 34.0532C106.666 33.9808 106.469 33.9671 106.283 34.0142C95.8371 37.387 86.7277 43.9965 80.2668 52.891C73.8058 61.7856 70.3266 72.5064 70.33 83.5099V83.5099Z" fill="#117BFF"/>
<path d="M94.3363 146.227C93.5863 145.005 92.5393 143.994 91.2932 143.289C78.3089 136.1 68.042 124.831 62.0739 111.216C56.1059 97.6015 54.7677 82.3972 58.2655 67.9452C61.7633 53.4931 69.9031 40.5949 81.4311 31.2373C92.959 21.8796 107.236 16.5817 122.062 16.1594C124.467 16.1594 126.833 16.1594 129.163 16.1594C130.601 16.3356 132.058 16.0592 133.333 15.3684C139.578 12.2816 146.159 9.93053 152.944 8.36216C153.243 8.36216 153.529 8.2431 153.741 8.03118C153.952 7.81926 154.071 7.53183 154.071 7.23212C154.071 6.93242 153.952 6.64499 153.741 6.43306C153.529 6.22114 153.243 6.10208 152.944 6.10208C140.781 1.11019 127.598 -0.866784 114.511 0.338878C94.6888 2.27492 76.2147 11.2683 62.4382 25.6885C48.6616 40.1087 40.4946 59.001 39.4178 78.9402C38.341 98.8794 44.4257 118.545 56.5688 134.373C68.7118 150.2 86.1093 161.141 105.607 165.212C105.856 165.249 106.111 165.209 106.337 165.097C106.563 164.985 106.75 164.807 106.873 164.586C106.995 164.365 107.047 164.112 107.023 163.86C106.998 163.608 106.897 163.37 106.734 163.178C102.001 157.995 97.844 152.311 94.3363 146.227V146.227Z" fill="#117BFF"/>
<path d="M31.4454 115.49C31.4542 127.86 35.8624 139.821 43.8777 149.225C51.8931 158.628 62.9904 164.858 75.1756 166.794C75.325 166.794 75.4684 166.734 75.5741 166.628C75.6797 166.522 75.7391 166.379 75.7391 166.229C75.7391 166.079 75.6797 165.935 75.5741 165.829C75.4684 165.723 75.325 165.664 75.1756 165.664C54.0501 153.729 38.3117 134.106 31.22 110.857C31.5581 112.326 31.4454 113.908 31.4454 115.49Z" fill="#117BFF"/>
<path d="M123.301 177.642H121.611C118.26 177.626 114.912 177.437 111.58 177.077C110.882 176.86 110.136 176.86 109.438 177.077C99.6495 181.12 89.0507 182.801 78.4952 181.987C67.9396 181.172 57.7223 177.884 48.6656 172.388C39.6089 166.891 31.9659 159.339 26.3518 150.34C20.7376 141.34 17.3093 131.145 16.3427 120.575C15.2009 105.506 19.1727 90.4929 27.6133 77.9725C28.0392 77.3281 28.3093 76.5929 28.4023 75.8255C29.0804 66.7749 31.0542 57.8693 34.263 49.3825C34.263 49.3825 34.263 48.2525 33.3614 48.7045C15.4264 61.6668 3.36161 81.2415 -0.178771 103.123C-3.71915 125.004 1.55484 147.399 14.483 165.381C27.4111 183.363 46.9344 195.46 68.758 199.01C90.5815 202.559 112.918 197.272 130.853 184.309C131.04 184.2 131.195 184.043 131.303 183.855C131.411 183.666 131.467 183.453 131.467 183.236C131.467 183.019 131.411 182.805 131.303 182.617C131.195 182.428 131.04 182.272 130.853 182.162C128.249 180.805 125.728 179.296 123.301 177.642V177.642Z" fill="#117BFF"/>
</g>
<defs>
<clipPath id="clip0">
<rect width="259" height="199" fill="white"/>
</clipPath>
</defs>
</svg>
