<svg width="117" height="102" viewBox="0 0 117 102" fill="none" xmlns="http://www.w3.org/2000/svg">
<path d="M7.3125 94.7143C7.3125 96.6466 8.08292 98.4997 9.45428 99.8661C10.8256 101.232 12.6856 102 14.625 102H51.1875V65.5714H7.3125V94.7143ZM65.8125 102H102.375C104.314 102 106.174 101.232 107.546 99.8661C108.917 98.4997 109.688 96.6466 109.688 94.7143V65.5714H65.8125V102ZM109.688 29.1429H100.067C101.556 26.3348 102.348 23.2117 102.375 20.0357C102.367 14.7243 100.246 9.6327 96.4764 5.87697C92.7069 2.12124 87.5966 0.00782905 82.2656 0C72.7594 0 66.6123 4.84955 58.7285 15.5504C50.8447 4.84955 44.6977 0 35.1914 0C29.8605 0.00782905 24.7501 2.12124 20.9806 5.87697C17.2111 9.6327 15.0899 14.7243 15.082 20.0357C15.0983 23.213 15.8905 26.3387 17.39 29.1429H7.3125C5.3731 29.1429 3.51314 29.9105 2.14178 31.2768C0.770422 32.6431 0 34.4963 0 36.4286L0 54.6429C0 55.609 0.385211 56.5356 1.07089 57.2187C1.75657 57.9019 2.68655 58.2857 3.65625 58.2857H113.344C114.313 58.2857 115.243 57.9019 115.929 57.2187C116.615 56.5356 117 55.609 117 54.6429V36.4286C117 34.4963 116.23 32.6431 114.858 31.2768C113.487 29.9105 111.627 29.1429 109.688 29.1429V29.1429ZM35.1686 29.1429C32.7443 29.1429 30.4194 28.1834 28.7052 26.4754C26.991 24.7675 26.0279 22.4511 26.0279 20.0357C26.0279 17.6203 26.991 15.3039 28.7052 13.596C30.4194 11.8881 32.7443 10.9286 35.1686 10.9286C39.716 10.9286 43.0752 11.6799 54.8438 29.1429H35.1686ZM82.2656 29.1429H62.5904C74.3361 11.7254 77.6039 10.9286 82.2656 10.9286C84.6899 10.9286 87.0148 11.8881 88.729 13.596C90.4432 15.3039 91.4062 17.6203 91.4062 20.0357C91.4062 22.4511 90.4432 24.7675 88.729 26.4754C87.0148 28.1834 84.6899 29.1429 82.2656 29.1429Z" fill="#117BFF"/>
</svg>
