<svg width="137" height="107" viewBox="0 0 137 107" fill="none" xmlns="http://www.w3.org/2000/svg">
<path d="M66.3953 27.5176L22.7379 63.4745V102.294C22.7379 103.299 23.137 104.263 23.8476 104.973C24.5581 105.684 25.5217 106.083 26.5266 106.083L53.0615 106.014C54.063 106.009 55.0218 105.608 55.7283 104.898C56.4347 104.188 56.8313 103.227 56.8312 102.226V79.5622C56.8312 78.5574 57.2304 77.5937 57.9409 76.8832C58.6514 76.1727 59.6151 75.7735 60.6199 75.7735H75.7746C76.7794 75.7735 77.7431 76.1727 78.4536 76.8832C79.1641 77.5937 79.5633 78.5574 79.5633 79.5622V102.209C79.5617 102.707 79.6582 103.2 79.8472 103.66C80.0361 104.12 80.3139 104.539 80.6646 104.891C81.0153 105.244 81.4321 105.525 81.8912 105.717C82.3502 105.908 82.8426 106.008 83.3401 106.01H83.3567L109.877 106.083C110.882 106.083 111.846 105.684 112.556 104.973C113.267 104.263 113.666 103.299 113.666 102.294V63.4603L70.0182 27.5176C69.5051 27.104 68.8658 26.8785 68.2067 26.8785C67.5477 26.8785 66.9084 27.104 66.3953 27.5176V27.5176ZM135.356 51.957L115.56 35.6396V2.84151C115.56 2.08789 115.261 1.36514 114.728 0.832258C114.195 0.299372 113.473 0 112.719 0L99.4586 0C98.705 0 97.9822 0.299372 97.4493 0.832258C96.9165 1.36514 96.6171 2.08789 96.6171 2.84151V20.035L75.4171 2.60471C73.3826 0.930544 70.8297 0.0151863 68.1949 0.0151863C65.5601 0.0151863 63.0072 0.930544 60.9727 2.60471L1.03349 51.957C0.453085 52.4372 0.0871359 53.1283 0.0160908 53.8782C-0.0549543 54.6282 0.17472 55.3757 0.654623 55.9564V55.9564L6.69283 63.2969C6.92911 63.5859 7.22 63.8255 7.54889 64.002C7.87779 64.1785 8.23823 64.2884 8.60963 64.3256C8.98104 64.3628 9.35612 64.3264 9.71347 64.2185C10.0708 64.1107 10.4034 63.9335 10.6923 63.6971V63.6971L66.3953 17.8091C66.9084 17.3955 67.5477 17.17 68.2067 17.17C68.8658 17.17 69.5051 17.3955 70.0182 17.8091L125.719 63.6971C126.006 63.9352 126.338 64.1144 126.695 64.2244C127.051 64.3343 127.426 64.3729 127.798 64.3379C128.169 64.303 128.53 64.1951 128.86 64.0206C129.19 63.846 129.483 63.6082 129.721 63.3206V63.3206L135.759 55.9801C136.237 55.3979 136.465 54.6495 136.392 53.8994C136.319 53.1494 135.95 52.4592 135.368 51.9806V51.9806L135.356 51.957Z" fill="#117BFF"/>
</svg>
